# xmcd
# 
# Track frame offsets:
#     150
#     17741
#     30887
#     46240
#     61396
#     79488
#     95162
#     114003
#     131898
#     150204
#     166343
#     181601
#     197771
#     213210
#     229871
#     254759
# 
# Disc length: 4150
# 
# Revision: 1
# Processed by: cddbd v1.5.2PL0 Copyright (c) Steve Scherf et al.
# Submitted via: fre:ac v1.0.31
# 
DISCID=ca103410
DTITLE=Taylor Swift - Taylor Swift
DYEAR=8
DGENRE=Country
TTITLE0=Tim Mcgraw
TTITLE1=Picture To Burn
TTITLE2=Teardrops On My Guitar
TTITLE3=A Playce In This World
TTITLE4=Cold As You
TTITLE5=The Outside
TTITLE6=Tied Together With A Smile
TTITLE7=Stay Beatiful
TTITLE8=Should've Said No
TTITLE9=Mary's Song (Oh My My My)
TTITLE10=Our Song
TTITLE11=I'm Only Me When I'm With You
TTITLE12=Invisible
TTITLE13=Perfect Good Heart
TTITLE14=Teardrops On My Guitar (Pop Version)
TTITLE15=Data Track
EXTD=
EXTT0=
EXTT1=
EXTT2=
EXTT3=
EXTT4=
EXTT5=
EXTT6=
EXTT7=
EXTT8=
EXTT9=
EXTT10=
EXTT11=
EXTT12=
EXTT13=
EXTT14=
EXTT15=
PLAYORDER=
